<?xml version="1.0" encoding="UTF-8"?>
<svg version="1.1" xmlns="http://www.w3.org/2000/svg" width="294" height="136">
<path d="M0 0 C2 3 2 3 2 5 C3.175625 5.556875 3.175625 5.556875 4.375 6.125 C7.28369234 8.20263738 7.52385263 8.81498246 8.375 12.125 C8.684375 14.043125 8.684375 14.043125 9 16 C8.505 16.495 8.505 16.495 8 17 C7.90113647 18.62252492 7.87028833 20.24947273 7.875 21.875 C7.87242188 22.75929688 7.86984375 23.64359375 7.8671875 24.5546875 C7.89951415 27.13906291 7.89951415 27.13906291 9 30 C8.505 30.495 8.505 30.495 8 31 C7.92726232 32.62350493 7.91630441 34.25000468 7.9375 35.875 C7.94652344 36.75929687 7.95554687 37.64359375 7.96484375 38.5546875 C7.97644531 39.36164062 7.98804687 40.16859375 8 41 C8 44.6522654 7.88769808 48.2988877 7.78125 51.94921875 C7.75905396 52.72183548 7.73685791 53.49445221 7.71398926 54.29048157 C7.64306166 56.75616616 7.57153819 59.22183306 7.5 61.6875 C7.45178365 63.36002491 7.4036061 65.03255094 7.35546875 66.70507812 C7.23742924 70.80339853 7.11885535 74.90170317 7 79 C10.53703408 76.67853034 13.75382216 74.49426922 16.6875 71.4375 C17.24824219 70.85871094 17.80898437 70.27992187 18.38671875 69.68359375 C19.18529297 68.85021484 19.18529297 68.85021484 20 68 C20.99771429 66.99771951 21.9969743 65.99696512 23 65 C22.5524021 75.07095266 16.25037409 84.29975157 9 91 C5.75535989 93.47921314 2.40508616 95.74951202 -1 98 C-1.33 98.33 -1.66 98.66 -2 99 C8.395 98.01 8.395 98.01 19 97 C16.74233129 101.51533742 16.74233129 101.51533742 13.125 103.1875 C12.44695312 103.51105469 11.76890625 103.83460937 11.0703125 104.16796875 C-2.87337152 109.77175119 -19.97936796 105.37343924 -33.90991211 102.13452148 C-44.87478411 99.61016429 -53.74269661 98.50727735 -64 104 C-66.44027965 106.19155884 -68.0821987 108.30471169 -70 111 C-71 108 -71 108 -70 105.1875 C-66.31843758 99.32000989 -61.81131377 95.66129604 -55 94 C-55.86625 93.01 -56.7325 92.02 -57.625 91 C-58.75353452 89.66965696 -59.87840823 88.33620159 -61 87 C-61.77150391 86.09701172 -61.77150391 86.09701172 -62.55859375 85.17578125 C-72.1601202 73.27986406 -74.16439802 59.80403583 -73 45 C-71.46304172 36.55112076 -68.26174731 29.73291596 -63 23 C-62.56042969 22.38640625 -62.12085938 21.7728125 -61.66796875 21.140625 C-54.60410865 11.93928562 -42.99931768 6.29205131 -31.7109375 4.46875 C-25.91188847 3.85978065 -25.91188847 3.85978065 -23 4 C-22.34 4.66 -21.68 5.32 -21 6 C-21.76183594 6.21914062 -22.52367187 6.43828125 -23.30859375 6.6640625 C-35.66414655 10.45865175 -44.85163976 16.41523426 -51.609375 27.68359375 C-56.35732749 37.51292236 -56.77808492 48.64715517 -53.375 59 C-50.0926607 66.6973168 -45.40712588 71.80648014 -39 77 C-38.97289877 74.4374282 -38.95311229 71.87514635 -38.9375 69.3125 C-38.92493164 68.2306543 -38.92493164 68.2306543 -38.91210938 67.12695312 C-38.89450799 63.27224911 -39.10907128 59.74850008 -40 56 C-40.85613187 49.47199448 -40.85613187 49.47199448 -38.7890625 45.91796875 C-35.51919493 41.90355387 -32.16674917 39.39761413 -27.625 36.9375 C-24.19248148 35.15934594 -24.19248148 35.15934594 -22.140625 32.07421875 C-21.79151404 29.93613403 -21.79151404 29.93613403 -22 27 C-22.66 27 -23.32 27 -24 27 C-23.67 25.35 -23.34 23.7 -23 22 C-22.34 22.33 -21.68 22.66 -21 23 C-21.33 23.66 -21.66 24.32 -22 25 C-21.01 25 -20.02 25 -19 25 C-19 25.66 -19 26.32 -19 27 C-19.66 27 -20.32 27 -21 27 C-20.41454608 32.72032824 -20.41454608 32.72032824 -16.7109375 36.8671875 C-12.15523934 39.86129296 -12.15523934 39.86129296 -7 41 C-7.0314209 40.08710205 -7.0628418 39.1742041 -7.09521484 38.23364258 C-7.19774464 34.83220567 -7.27281395 31.43241953 -7.32958984 28.0300293 C-7.35968538 26.56036404 -7.40057406 25.09087729 -7.45263672 23.62182617 C-7.5257907 21.50394659 -7.55952214 19.38844755 -7.5859375 17.26953125 C-7.6173584 15.99698486 -7.6487793 14.72443848 -7.68115234 13.41333008 C-6.73593753 8.67675364 -4.82304139 7.81393412 -1 5 C-0.04452419 2.32891902 -0.04452419 2.32891902 0 0 Z M0 21 C-2.30671915 23.71549154 -2.30671915 23.71549154 -1.625 26.1875 C-1.41875 26.785625 -1.2125 27.38375 -1 28 C0.32 27.67 1.64 27.34 3 27 C2.67 25.02 2.34 23.04 2 21 C1.34 21 0.68 21 0 21 Z M0 34 C-2.36980013 36.95377498 -2.36980013 36.95377498 -2 41 C-0.35 41 1.3 41 3 41 C2.65772428 38.02934491 2.65772428 38.02934491 2 35 C1.34 34.67 0.68 34.34 0 34 Z M-33 64 C-33.33 65.32 -33.66 66.64 -34 68 C-32.68 67.67 -31.36 67.34 -30 67 C-30.33 66.01 -30.66 65.02 -31 64 C-31.66 64 -32.32 64 -33 64 Z M-11 64 C-11.99 65.485 -11.99 65.485 -13 67 C-11.68 67.33 -10.36 67.66 -9 68 C-9 67.01 -9 66.02 -9 65 C-9.66 64.67 -10.32 64.34 -11 64 Z M-22 69 C-24.10882296 70.07927165 -24.10882296 70.07927165 -26 72 C-26.48407934 74.96835863 -26.48407934 74.96835863 -26.25 78.1875 C-26.21390625 79.27417969 -26.1778125 80.36085938 -26.140625 81.48046875 C-26.09421875 82.31191406 -26.0478125 83.14335938 -26 84 C-23.03 84.33 -20.06 84.66 -17 85 C-16.86503749 82.89758397 -16.76802693 80.7927039 -16.6875 78.6875 C-16.62949219 77.51574219 -16.57148437 76.34398438 -16.51171875 75.13671875 C-16.660191 71.79900231 -16.660191 71.79900231 -19.51953125 70.08203125 C-20.33808594 69.72496094 -21.15664063 69.36789063 -22 69 Z " fill="#FCD451" transform="translate(76,7)"/>
<path d="M0 0 C-2.83242422 1.88828282 -4.98485959 2.72009589 -8.1875 3.75 C-18.95603368 7.60907926 -26.96923783 15.20062504 -31.9375 25.5 C-35.75484983 35.4984229 -35.46225028 46.76018068 -31.265625 56.6015625 C-27.75675368 63.25109024 -23.84522239 67.12898134 -18 72 C-18 65.73 -18 59.46 -18 53 C-15.03 53.33 -12.06 53.66 -9 54 C-8.67 54.66 -8.34 55.32 -8 56 C-9.65 56 -11.3 56 -13 56 C-13 58.31 -13 60.62 -13 63 C-10.69 62.67 -8.38 62.34 -6 62 C-6 62.66 -6 63.32 -6 64 C-5.34 64 -4.68 64 -4 64 C-3.505 63.01 -3.505 63.01 -3 62 C-2.01 62.495 -2.01 62.495 -1 63 C-1 63.66 -1 64.32 -1 65 C-1.99 65.66 -2.98 66.32 -4 67 C-4.58481121 69.88595946 -4.58481121 69.88595946 -4.6875 73.125 C-4.75324219 74.22070312 -4.81898437 75.31640625 -4.88671875 76.4453125 C-4.92410156 77.28835937 -4.96148437 78.13140625 -5 79 C-2.03 79.33 0.94 79.66 4 80 C3.88590318 77.89521396 3.75834639 75.79115423 3.625 73.6875 C3.55539063 72.51574219 3.48578125 71.34398438 3.4140625 70.13671875 C3.21386253 66.84300113 3.21386253 66.84300113 1 64 C6.95703125 62.2421875 6.95703125 62.2421875 9 62 C9.99 62.66 10.98 63.32 12 64 C9.525 64.99 9.525 64.99 7 66 C6.90912109 67.49853516 6.90912109 67.49853516 6.81640625 69.02734375 C6.73261719 70.31769531 6.64882813 71.60804687 6.5625 72.9375 C6.48128906 74.22527344 6.40007813 75.51304688 6.31640625 76.83984375 C6 80 6 80 5 81 C3.00041636 81.04080783 0.99954746 81.04254356 -1 81 C-1.268125 81.94875 -1.53625 82.8975 -1.8125 83.875 C-3 87 -3 87 -6 89 C-6 89.33 -6 89.66 -6 90 C-3.03 90.33 -0.06 90.66 3 91 C3 91.66 3 92.32 3 93 C1.59814453 92.81824219 1.59814453 92.81824219 0.16796875 92.6328125 C-0.45658203 92.55329346 -1.08113281 92.47377441 -1.72460938 92.3918457 C-3.13649451 92.2113978 -4.54794838 92.02754807 -5.95898438 91.84057617 C-9.97562664 91.32279225 -13.96882315 90.914917 -18.01171875 90.66796875 C-33.45850494 89.63858432 -33.45850494 89.63858432 -38.5078125 83.97265625 C-39.00023437 83.32167969 -39.49265625 82.67070313 -40 82 C-40.80050781 81.10087891 -40.80050781 81.10087891 -41.6171875 80.18359375 C-51.34194525 68.59613365 -53.14413687 54.54643774 -52 40 C-50.46304172 31.55112076 -47.26174731 24.73291596 -42 18 C-41.56042969 17.38640625 -41.12085938 16.7728125 -40.66796875 16.140625 C-33.42370423 6.70429196 -21.28884852 0.97401945 -9.6875 -0.8125 C-6.24090451 -0.98775062 -3.35698835 -0.75532238 0 0 Z " fill="#FCD451" transform="translate(55,12)"/>
<path d="M0 0 C1.051875 -0.02126953 1.051875 -0.02126953 2.125 -0.04296875 C4 0.1875 4 0.1875 6 2.1875 C5.01 2.5175 4.02 2.8475 3 3.1875 C3.33 10.1175 3.66 17.0475 4 24.1875 C5.32 24.1875 6.64 24.1875 8 24.1875 C8.66 20.8875 9.32 17.5875 10 14.1875 C10.66 14.1875 11.32 14.1875 12 14.1875 C12.33 17.4875 12.66 20.7875 13 24.1875 C16.06164304 23.55530544 16.06164304 23.55530544 16.87548828 21.48510742 C17.10478027 20.76170166 17.33407227 20.0382959 17.5703125 19.29296875 C17.95509766 18.10670898 17.95509766 18.10670898 18.34765625 16.89648438 C18.60417969 16.06439453 18.86070312 15.23230469 19.125 14.375 C19.38925781 13.55451172 19.65351563 12.73402344 19.92578125 11.88867188 C21.05909972 8.34201788 22.12522496 4.80755797 23 1.1875 C29.625 -0.0625 29.625 -0.0625 33 2.1875 C32.67 2.8475 32.34 3.5075 32 4.1875 C32.51707888 6.00978657 32.51707888 6.00978657 33.43359375 7.99609375 C33.75263672 8.74310547 34.07167969 9.49011719 34.40039062 10.25976562 C34.91375977 11.43055664 34.91375977 11.43055664 35.4375 12.625 C36.10769939 14.16326716 36.77326808 15.70356236 37.43359375 17.24609375 C37.73322021 17.92986084 38.03284668 18.61362793 38.34155273 19.31811523 C39 21.1875 39 21.1875 39 24.1875 C39.99 24.5175 40.98 24.8475 42 25.1875 C41.67 25.8475 41.34 26.5075 41 27.1875 C37.7 27.1875 34.4 27.1875 31 27.1875 C30.855625 26.424375 30.71125 25.66125 30.5625 24.875 C30.0367406 22.10577092 30.0367406 22.10577092 29 19.1875 C27.02 19.1875 25.04 19.1875 23 19.1875 C24.39759905 22.73268884 24.39759905 22.73268884 26 26.1875 C19.35958878 27.41149452 12.79778303 27.29977753 6.0625 27.25 C4.32129883 27.24323242 4.32129883 27.24323242 2.54492188 27.23632812 C-0.30343934 27.22460647 -3.15169222 27.2081976 -6 27.1875 C-5.505 25.7025 -5.505 25.7025 -5 24.1875 C-4.9072371 22.58410209 -4.86931536 20.97717136 -4.8671875 19.37109375 C-4.86589844 18.44232422 -4.86460937 17.51355469 -4.86328125 16.55664062 C-4.86714844 15.58919922 -4.87101563 14.62175781 -4.875 13.625 C-4.87113281 12.65369141 -4.86726562 11.68238281 -4.86328125 10.68164062 C-4.86457031 9.75416016 -4.86585938 8.82667969 -4.8671875 7.87109375 C-4.86831543 7.02087646 -4.86944336 6.17065918 -4.87060547 5.29467773 C-4.86548625 3.13023385 -4.86548625 3.13023385 -6 1.1875 C-3.77109005 0.07304502 -2.46944894 0.02269714 0 0 Z M24 6.1875 C23.63890458 7.83182706 23.28629924 9.4780208 22.9375 11.125 C22.74027344 12.04152344 22.54304688 12.95804688 22.33984375 13.90234375 C22.22769531 14.65644531 22.11554688 15.41054688 22 16.1875 C23.06645115 17.48383621 23.06645115 17.48383621 25.5625 17.25 C26.366875 17.229375 27.17125 17.20875 28 17.1875 C27.71758359 15.72734709 27.42373386 14.26940207 27.125 12.8125 C26.88136719 11.59433594 26.88136719 11.59433594 26.6328125 10.3515625 C26.13341068 8.00076077 26.13341068 8.00076077 24 6.1875 Z " fill="#F5D261" transform="translate(206,39.8125)"/>
<path d="M0 0 C10.44657957 2.08615072 19.92204292 3.19662971 30.5625 2.5 C31.85542969 2.42007813 33.14835937 2.34015625 34.48046875 2.2578125 C37.51310142 2.04328543 40.53678056 1.79467876 43.5625 1.5 C42.5625 4.5 42.5625 4.5 40.48828125 5.8515625 C39.19470703 6.48191406 39.19470703 6.48191406 37.875 7.125 C37.02550781 7.55039063 36.17601563 7.97578125 35.30078125 8.4140625 C22.29906589 13.57023492 7.83491609 9.60025822 -5.17773438 6.6328125 C-21.69435091 3.04873354 -21.69435091 3.04873354 -37.4375 7.5 C-40.8091131 9.8226668 -42.92923882 11.66078973 -44.4375 15.5 C-45.0975 15.5 -45.7575 15.5 -46.4375 15.5 C-45.34959521 10.15113476 -44.51874876 6.36644619 -40.4375 2.5 C-27.43172524 -5.27719057 -14.19589394 -2.85374272 0 0 Z " fill="#06453A" transform="translate(52.4375,111.5)"/>
<path d="M0 0 C10.76302665 2.10652739 20.34300999 1.90751881 31.20068359 0.77905273 C32.15716797 0.68366211 33.11365234 0.58827148 34.09912109 0.48999023 C36.42512113 0.25739023 38.75057319 0.02035594 41.07568359 -0.22094727 C39.53892696 3.11010171 38.56753734 4.41017694 35.20068359 5.96655273 C34.52263672 6.29010742 33.84458984 6.61366211 33.14599609 6.94702148 C19.20231208 12.55080393 2.09631563 8.15249197 -11.83422852 4.91357422 C-22.79910052 2.38921702 -31.66701301 1.28633008 -41.92431641 6.77905273 C-44.36459606 8.97061157 -46.00651511 11.08376443 -47.92431641 13.77905273 C-48.92431641 10.77905273 -48.92431641 10.77905273 -47.92431641 7.96655273 C-37.23564403 -9.06851886 -16.57607242 -3.30871582 0 0 Z " fill="#084539" transform="translate(53.92431640625,104.220947265625)"/>
<path d="M0 0 C3.96 0 7.92 0 12 0 C11.67 0.66 11.34 1.32 11 2 C10.84777027 3.66565749 10.75082785 5.33656496 10.68359375 7.0078125 C10.64169922 7.99394531 10.59980469 8.98007812 10.55664062 9.99609375 C10.51732422 11.02863281 10.47800781 12.06117187 10.4375 13.125 C10.39431641 14.16527344 10.35113281 15.20554687 10.30664062 16.27734375 C10.2003712 18.85142528 10.09833417 21.42560508 10 24 C13.19273861 22.65896417 13.19273861 22.65896417 15.046875 19.8359375 C15.27890625 19.02382813 15.5109375 18.21171875 15.75 17.375 C15.99234375 16.55773437 16.2346875 15.74046875 16.484375 14.8984375 C16.65453125 14.27195312 16.8246875 13.64546875 17 13 C17.33 13 17.66 13 18 13 C18.33 16.63 18.66 20.26 19 24 C19.99 23.67 20.98 23.34 22 23 C22.02894547 19.54168414 22.04678 16.08339928 22.0625 12.625 C22.07087891 11.64015625 22.07925781 10.6553125 22.08789062 9.640625 C22.09111328 8.69960938 22.09433594 7.75859375 22.09765625 6.7890625 C22.10289307 5.91975098 22.10812988 5.05043945 22.11352539 4.15478516 C22.14122351 1.94950006 22.14122351 1.94950006 21 0 C24.63 0 28.26 0 32 0 C31.67 0.66 31.34 1.32 31 2 C30.90427398 3.55888915 30.86925947 5.12176964 30.8671875 6.68359375 C30.86589844 7.61107422 30.86460937 8.53855469 30.86328125 9.49414062 C30.86908203 10.95110352 30.86908203 10.95110352 30.875 12.4375 C30.87113281 13.40494141 30.86726563 14.37238281 30.86328125 15.36914062 C30.86521484 16.76229492 30.86521484 16.76229492 30.8671875 18.18359375 C30.86831543 19.03493896 30.86944336 19.88628418 30.87060547 20.76342773 C30.91236599 23.171942 30.91236599 23.171942 32 26 C21.77 26 11.54 26 1 26 C0.67 25.34 0.34 24.68 0 24 C0.66 23.67 1.32 23.34 2 23 C2.33 16.07 2.66 9.14 3 2 C2.01 1.67 1.02 1.34 0 1 C0 0.67 0 0.34 0 0 Z " fill="#05483C" transform="translate(138,41)"/>
<path d="M0 0 C2 3 2 3 2 5 C2.78375 5.37125 3.5675 5.7425 4.375 6.125 C7.28369234 8.20263738 7.52385263 8.81498246 8.375 12.125 C8.58125 13.40375 8.7875 14.6825 9 16 C8.67 16.33 8.34 16.66 8 17 C7.90113647 18.62252492 7.87028833 20.24947273 7.875 21.875 C7.87242188 22.75929688 7.86984375 23.64359375 7.8671875 24.5546875 C7.89951415 27.13906291 7.89951415 27.13906291 9 30 C8.67 30.33 8.34 30.66 8 31 C7.92726232 32.62350493 7.91630441 34.25000468 7.9375 35.875 C7.95103516 37.20144531 7.95103516 37.20144531 7.96484375 38.5546875 C7.97644531 39.36164062 7.98804687 40.16859375 8 41 C8 44.11227195 7.54372951 46.94152152 7 50 C5 48 5 48 4.875 44.375 C4.91625 43.26125 4.9575 42.1475 5 41 C4.34 41 3.68 41 3 41 C2.34 39.02 1.68 37.04 1 35 C-0.95216435 36.95216435 -1.84826645 38.53199953 -3 41 C-3 39.68 -3 38.36 -3 37 C-3.66 37 -4.32 37 -5 37 C-5 38.65 -5 40.3 -5 42 C-5.66 41.67 -6.32 41.34 -7 41 C-7.14879892 36.6768192 -7.25741862 32.35500997 -7.32958984 28.0300293 C-7.35968538 26.56036404 -7.40057406 25.09087729 -7.45263672 23.62182617 C-7.5257907 21.50394659 -7.55952214 19.38844755 -7.5859375 17.26953125 C-7.63306885 15.36071167 -7.63306885 15.36071167 -7.68115234 13.41333008 C-6.73593753 8.67675364 -4.82304139 7.81393412 -1 5 C-0.04452419 2.32891902 -0.04452419 2.32891902 0 0 Z M0 21 C-2.30671915 23.71549154 -2.30671915 23.71549154 -1.625 26.1875 C-1.41875 26.785625 -1.2125 27.38375 -1 28 C0.32 27.67 1.64 27.34 3 27 C2.67 25.02 2.34 23.04 2 21 C1.34 21 0.68 21 0 21 Z " fill="#F9D65F" transform="translate(76,7)"/>
<path d="M0 0 C3.96 0 7.92 0 12 0 C11.67 0.66 11.34 1.32 11 2 C10.34 2 9.68 2 9 2 C9 5.3 9 8.6 9 12 C11.31 12 13.62 12 16 12 C15.85904936 10.3745692 15.71207913 8.74965949 15.5625 7.125 C15.48128906 6.22007813 15.40007812 5.31515625 15.31640625 4.3828125 C15.13010715 1.98889139 15.13010715 1.98889139 14 0 C17.63 0 21.26 0 25 0 C24.67 0.66 24.34 1.32 24 2 C23.90427398 3.55888915 23.86925947 5.12176964 23.8671875 6.68359375 C23.86589844 7.61107422 23.86460938 8.53855469 23.86328125 9.49414062 C23.86908203 10.95110352 23.86908203 10.95110352 23.875 12.4375 C23.87113281 13.40494141 23.86726563 14.37238281 23.86328125 15.36914062 C23.86521484 16.76229492 23.86521484 16.76229492 23.8671875 18.18359375 C23.86831543 19.03493896 23.86944336 19.88628418 23.87060547 20.76342773 C23.91236599 23.171942 23.91236599 23.171942 25 26 C21.37 26 17.74 26 14 26 C14.66 22.04 15.32 18.08 16 14 C13.69 14 11.38 14 9 14 C9.11409593 15.45922693 9.24165544 16.91740598 9.375 18.375 C9.44460937 19.18710937 9.51421875 19.99921875 9.5859375 20.8359375 C9.82892588 23.20334191 9.82892588 23.20334191 12 25 C11 26 11 26 8.71484375 26.09765625 C7.34005859 26.08025391 7.34005859 26.08025391 5.9375 26.0625 C5.01839844 26.05347656 4.09929687 26.04445313 3.15234375 26.03515625 C2.44207031 26.02355469 1.73179688 26.01195313 1 26 C0.67 25.34 0.34 24.68 0 24 C0.66 23.67 1.32 23.34 2 23 C2.33 16.07 2.66 9.14 3 2 C2.01 1.67 1.02 1.34 0 1 C0 0.67 0 0.34 0 0 Z " fill="#09483D" transform="translate(88,41)"/>
<path d="M0 0 C3.62245232 2.1580567 5.39024012 4.16188256 7 8 C7.74148241 12.74203866 7.43787689 16.16954383 5.1875 20.4375 C2.88699238 23.13238035 1.27641204 24.81394672 -2.3046875 25.3359375 C-6.57276853 25.40080195 -9.24596584 25.43985326 -13 23.25 C-16.57772258 19.2250621 -17.41469953 16.55507176 -17.25 11.02734375 C-16.72299206 6.75363874 -15.06467794 3.93942171 -11.875 1.125 C-7.84606318 -0.45154049 -4.26935908 -0.70510286 0 0 Z M-7 2 C-9.99200471 6.98270107 -9.51813875 12.3680571 -9 18 C-8.24360446 20.36974789 -7.38948233 21.91577651 -6 24 C-4.00016466 23.20882096 -4.00016466 23.20882096 -2 22 C-0.88916499 18.66749498 -0.83240415 16.06961042 -0.8125 12.5625 C-0.79832031 11.42941406 -0.78414062 10.29632813 -0.76953125 9.12890625 C-0.98928865 6.14542021 -1.44156614 4.50704577 -3 2 C-4.32 2 -5.64 2 -7 2 Z " fill="#07483D" transform="translate(131,41)"/>
<path d="M0 0 C5.61 0 11.22 0 17 0 C18.06546953 3.1964086 18.07427838 5.65747276 18 9 C17.01 9.33 16.02 9.66 15 10 C14.34 7.69 13.68 5.38 13 3 C11.68 3 10.36 3 9 3 C9 5.31 9 7.62 9 10 C10.65 9.67 12.3 9.34 14 9 C14.66 11.31 15.32 13.62 16 16 C16.33 16 16.66 16 17 16 C17.33 19.63 17.66 23.26 18 27 C12.06 27 6.12 27 0 27 C0 18 0 9 0 0 Z M9 14 C7.76732652 15.00836062 7.76732652 15.00836062 7.90234375 17.06640625 C7.91394531 17.89011719 7.92554688 18.71382812 7.9375 19.5625 C7.94652344 20.38878906 7.95554687 21.21507812 7.96484375 22.06640625 C7.97644531 22.70449219 7.98804688 23.34257813 8 24 C9.89179203 24.6814823 9.89179203 24.6814823 12 25 C12.66 24.34 13.32 23.68 14 23 C13.6442194 19.62008426 12.64284201 16.95711562 11 14 C10.34 14 9.68 14 9 14 Z " fill="#FBD651" transform="translate(272,40)"/>
<path d="M0 0 C2.5 1.75 2.5 1.75 4 4 C4.25 6.75 4.25 6.75 4 9 C1.36 9.33 -1.28 9.66 -4 10 C-4 7.69 -4 5.38 -4 3 C-5.32 3 -6.64 3 -8 3 C-9.11083501 6.33250502 -9.16759585 8.93038958 -9.1875 12.4375 C-9.20876953 14.13712891 -9.20876953 14.13712891 -9.23046875 15.87109375 C-9.01071135 18.85457979 -8.55843386 20.49295423 -7 23 C-6.01 22.67 -5.02 22.34 -4 22 C-4 19.69 -4 17.38 -4 15 C-2 14 -2 14 1.125 14.9375 C2.07375 15.288125 3.0225 15.63875 4 16 C3.9375 19.3125 3.9375 19.3125 3 23 C-1.05113066 25.78515233 -3.78833811 26.33895408 -8.625 25.5625 C-12.28147195 24.51868664 -14.91558265 23.11520886 -17.19140625 19.91015625 C-18.83711504 16.02246737 -18.63223552 12.10953085 -18 8 C-16.39875543 4.23707527 -14.45444189 2.15902618 -11 0 C-7.15410363 -1.28196546 -3.8664844 -1.00357442 0 0 Z " fill="#F8D35D" transform="translate(266,41)"/>
<path d="M0 0 C5.22873353 0.10055257 8.89341374 0.46464441 13.3125 3.3125 C14.5625 5.6875 14.5625 5.6875 14.3125 8.3125 C11.2080437 12.2636262 7.83901742 14.25499208 3.3125 16.3125 C1.34427114 18.28072886 1.65001619 21.66058709 1.3125 24.3125 C2.3025 24.6425 3.2925 24.9725 4.3125 25.3125 C3.9825 25.9725 3.6525 26.6325 3.3125 27.3125 C0.0125 27.3125 -3.2875 27.3125 -6.6875 27.3125 C-6.6875 26.3225 -6.6875 25.3325 -6.6875 24.3125 C-6.0275 24.3125 -5.3675 24.3125 -4.6875 24.3125 C-4.77128906 23.71824219 -4.85507813 23.12398437 -4.94140625 22.51171875 C-5.74731146 15.95226245 -5.49684529 9.86197111 -4.6875 3.3125 C-5.6775 2.9825 -6.6675 2.6525 -7.6875 2.3125 C-5.03539823 -0.33960177 -3.69424401 0.01390556 0 0 Z M2.3125 2.3125 C1.10977181 4.71795638 1.21178528 6.26246953 1.25 8.9375 C1.25902344 9.75476563 1.26804688 10.57203125 1.27734375 11.4140625 C1.28894531 12.04054688 1.30054688 12.66703125 1.3125 13.3125 C3.78050047 12.16076645 5.36033565 11.26466435 7.3125 9.3125 C7.30327298 6.76536596 7.30327298 6.76536596 6.3125 4.3125 C4.34491727 2.95229849 4.34491727 2.95229849 2.3125 2.3125 Z " fill="#FBD64C" transform="translate(185.6875,39.6875)"/>
<path d="M0 0 C-2.83242422 1.88828282 -4.98485959 2.72009589 -8.1875 3.75 C-17.30340271 7.01683207 -22.97280259 12.57901319 -29 20 C-29.58203125 18.109375 -29.58203125 18.109375 -30 16 C-28.6875 14.25 -28.6875 14.25 -27 13 C-26.34 13 -25.68 13 -25 13 C-25 12.01 -25 11.02 -25 10 C-24.34 10 -23.68 10 -23 10 C-23.33 9.34 -23.66 8.68 -24 8 C-26.02463255 7.34786708 -26.02463255 7.34786708 -28 7 C-28 7.66 -28 8.32 -28 9 C-30.46692008 10.80695068 -33.03487409 12.41384469 -35.6171875 14.05078125 C-38.25891083 16.21179755 -39.03318484 17.7717264 -40 21 C-41.32 20.67 -42.64 20.34 -44 20 C-35.22391998 8.91045476 -23.85294016 1.36887006 -9.6875 -0.8125 C-6.24090451 -0.98775062 -3.35698835 -0.75532238 0 0 Z " fill="#F8D95F" transform="translate(55,12)"/>
<path d="M0 0 C0.33 0 0.66 0 1 0 C1.33 2.31 1.66 4.62 2 7 C3.65 6.67 5.3 6.34 7 6 C7.66 8.31 8.32 10.62 9 13 C9.33 13 9.66 13 10 13 C10.33 16.63 10.66 20.26 11 24 C5.06 24 -0.88 24 -7 24 C-7 20.42356421 -6.74637226 16.87823909 -6.5 13.3125 C-6.45230469 12.61060547 -6.40460938 11.90871094 -6.35546875 11.18554688 C-6.23787848 9.45696984 -6.11905865 7.72847652 -6 6 C-5.67 6 -5.34 6 -5 6 C-5 11.28 -5 16.56 -5 22 C-3.35 22 -1.7 22 0 22 C0 14.74 0 7.48 0 0 Z M2 11 C0.76732652 12.00836062 0.76732652 12.00836062 0.90234375 14.06640625 C0.91394531 14.89011719 0.92554688 15.71382812 0.9375 16.5625 C0.94652344 17.38878906 0.95554687 18.21507812 0.96484375 19.06640625 C0.97644531 19.70449219 0.98804688 20.34257813 1 21 C2.89179203 21.6814823 2.89179203 21.6814823 5 22 C5.66 21.34 6.32 20.68 7 20 C6.6442194 16.62008426 5.64284201 13.95711562 4 11 C3.34 11 2.68 11 2 11 Z " fill="#F8D765" transform="translate(279,43)"/>
<path d="M0 0 C4 1 4 1 6 4 C6.66 2.68 7.32 1.36 8 0 C8.99 0 9.98 0 11 0 C12.3271261 3.9813783 12.06915913 7.85045227 12 12 C11.34 12 10.68 12 10 12 C9.34 11.34 8.68 10.68 8 10 C7.67 10.99 7.34 11.98 7 13 C6.01 12.67 5.02 12.34 4 12 C3.67 11.01 3.34 10.02 3 9 C2.67 9.99 2.34 10.98 2 12 C1.01 12 0.02 12 -1 12 C-0.67 8.04 -0.34 4.08 0 0 Z " fill="#237B56" transform="translate(130,76)"/>
<path d="M0 0 C11.36312879 -0.45251398 21.85583729 0.85541886 33 3 C31 5 31 5 28 6 C27.67 6.66 27.34 7.32 27 8 C21.21101581 8.20674944 16.57067277 7.59162079 11 6 C11 5.67 11 5.34 11 5 C14.465 4.505 14.465 4.505 18 4 C18 3.34 18 2.68 18 2 C16.95199219 2.02320312 15.90398438 2.04640625 14.82421875 2.0703125 C13.44531963 2.08907303 12.0664128 2.10727293 10.6875 2.125 C9.65206055 2.15013672 9.65206055 2.15013672 8.59570312 2.17578125 C4.82864604 2.21217794 3.21568296 2.14378864 0 0 Z " fill="#164B29" transform="translate(21,101)"/>
<path d="M0 0 C0.06058594 0.85464844 0.12117187 1.70929687 0.18359375 2.58984375 C0.26738281 3.69457031 0.35117188 4.79929687 0.4375 5.9375 C0.51871094 7.03964844 0.59992188 8.14179687 0.68359375 9.27734375 C0.70418084 11.91109903 0.70418084 11.91109903 2 13 C2.45459858 15.65463121 2.70243238 18.32189138 3 21 C0.69 21 -1.62 21 -4 21 C-4.08687496 17.87517438 -4.14034568 14.75065754 -4.1875 11.625 C-4.21263672 10.73554687 -4.23777344 9.84609375 -4.26367188 8.9296875 C-4.27333984 8.07890625 -4.28300781 7.228125 -4.29296875 6.3515625 C-4.3086792 5.56604004 -4.32438965 4.78051758 -4.34057617 3.97119141 C-4.22818604 3.32069824 -4.1157959 2.67020508 -4 2 C-1 0 -1 0 0 0 Z " fill="#FDD44F" transform="translate(207,44)"/>
<path d="M0 0 C1.4375 3.125 1.4375 3.125 2 6 C-1.38959176 9.68867338 -4.42412439 11.96627751 -9 14 C-9.66 14.33 -10.32 14.66 -11 15 C-10.58072372 12.06506604 -10.12075992 11.11010463 -7.875 9.0625 C-5.70129975 7.14831647 -5.70129975 7.14831647 -6.0625 4.4375 C-7.02923961 1.923977 -7.94384695 0.69856122 -10 -1 C-5.93485074 -2.35504975 -3.91346476 -1.63653981 0 0 Z " fill="#F5D466" transform="translate(198,42)"/>
<path d="M0 0 C6.3782235 -0.36103152 6.3782235 -0.36103152 8.9375 1.125 C10.48724515 3.85984439 10.32162076 5.9124407 10 9 C8 12 8 12 4.4375 12.75 C2.7359375 12.87375 2.7359375 12.87375 1 13 C0 12 0 12 -0.09765625 9.27734375 C-0.08605469 8.17519531 -0.07445312 7.07304688 -0.0625 5.9375 C-0.05347656 4.83277344 -0.04445312 3.72804688 -0.03515625 2.58984375 C-0.02355469 1.73519531 -0.01195312 0.88054687 0 0 Z M3 2 C3 4.64 3 7.28 3 10 C4.32 9.67 5.64 9.34 7 9 C7 7.35 7 5.7 7 4 C5.68 3.34 4.36 2.68 3 2 Z " fill="#1D6D4C" transform="translate(174,76)"/>
<path d="M0 0 C0.33 0 0.66 0 1 0 C1 5.94 1 11.88 1 18 C5.03377936 16.49178773 5.03377936 16.49178773 6.046875 13.8359375 C6.27890625 13.02382813 6.5109375 12.21171875 6.75 11.375 C6.99234375 10.55773438 7.2346875 9.74046875 7.484375 8.8984375 C7.65453125 8.27195312 7.8246875 7.64546875 8 7 C8.33 7 8.66 7 9 7 C9.04898438 7.78246094 9.09796875 8.56492187 9.1484375 9.37109375 C9.22320312 10.38300781 9.29796875 11.39492188 9.375 12.4375 C9.44460937 13.44683594 9.51421875 14.45617187 9.5859375 15.49609375 C9.72257812 16.32238281 9.85921875 17.14867188 10 18 C10.66 18.33 11.32 18.66 12 19 C9.703463 20.1482685 8.41686833 20.11561175 5.8671875 20.09765625 C5.06152344 20.09443359 4.25585938 20.09121094 3.42578125 20.08789062 C2.58402344 20.07951172 1.74226562 20.07113281 0.875 20.0625 C0.02550781 20.05798828 -0.82398438 20.05347656 -1.69921875 20.04882812 C-3.79950909 20.03702874 -5.8997633 20.01909306 -8 20 C-8.33 19.34 -8.66 18.68 -9 18 C-6.36 18 -3.72 18 -1 18 C-0.505 9.09 -0.505 9.09 0 0 Z " fill="#0C3C34" transform="translate(147,47)"/>
<path d="M0 0 C0.66 0 1.32 0 2 0 C2 1.65 2 3.3 2 5 C3.32 5 4.64 5 6 5 C6.33 3.35 6.66 1.7 7 0 C7.66 0 8.32 0 9 0 C9 3.96 9 7.92 9 12 C8.01 12 7.02 12 6 12 C6 10.35 6 8.7 6 7 C4.68 7 3.36 7 2 7 C2 8.65 2 10.3 2 12 C1.01 12 0.02 12 -1 12 C-1.02687279 10.18757948 -1.04633715 8.37504767 -1.0625 6.5625 C-1.07410156 5.55316406 -1.08570313 4.54382813 -1.09765625 3.50390625 C-1 1 -1 1 0 0 Z " fill="#186E4A" transform="translate(254,76)"/>
<path d="M0 0 C0.703125 1.5546875 0.703125 1.5546875 1 4 C0.01523808 6.50824654 -1.00421855 8.75557253 -2.25 11.125 C-2.56324219 11.75792969 -2.87648438 12.39085938 -3.19921875 13.04296875 C-4.86190006 16.29244135 -5.90732234 17.93821489 -9 20 C-8.6596875 18.8553125 -8.6596875 18.8553125 -8.3125 17.6875 C-8.209375 16.800625 -8.10625 15.91375 -8 15 C-9.42452044 13.32517518 -9.42452044 13.32517518 -11 12 C-10.37351562 11.38511719 -9.74703125 10.77023438 -9.1015625 10.13671875 C-8.28429687 9.32847656 -7.46703125 8.52023438 -6.625 7.6875 C-5.40683594 6.48673828 -5.40683594 6.48673828 -4.1640625 5.26171875 C-1.87395158 2.99990063 -1.87395158 2.99990063 0 0 Z " fill="#F7D55A" transform="translate(98,72)"/>
<path d="M0 0 C0.99 0.33 1.98 0.66 3 1 C4.16796875 3.50390625 4.16796875 3.50390625 5.1875 6.5625 C5.53167969 7.57441406 5.87585938 8.58632812 6.23046875 9.62890625 C6.48441406 10.41136719 6.73835937 11.19382812 7 12 C4.0703125 11.56054688 4.0703125 11.56054688 1.140625 11.12109375 C-1.33941547 10.87452051 -1.33941547 10.87452051 -5 12 C-3.35 8.04 -1.7 4.08 0 0 Z M1 5 C0.67 5.66 0.34 6.32 0 7 C0.66 7 1.32 7 2 7 C1.67 6.34 1.34 5.68 1 5 Z " fill="#19754C" transform="translate(218,76)"/>
<path d="M0 0 C0.99 0.33 1.98 0.66 3 1 C4.16796875 3.50390625 4.16796875 3.50390625 5.1875 6.5625 C5.53167969 7.57441406 5.87585938 8.58632812 6.23046875 9.62890625 C6.48441406 10.41136719 6.73835937 11.19382812 7 12 C4.0703125 11.56054688 4.0703125 11.56054688 1.140625 11.12109375 C-1.33941547 10.87452051 -1.33941547 10.87452051 -5 12 C-3.35 8.04 -1.7 4.08 0 0 Z M1 5 C0.67 5.66 0.34 6.32 0 7 C0.66 7 1.32 7 2 7 C1.67 6.34 1.34 5.68 1 5 Z " fill="#1A6D4D" transform="translate(157,76)"/>
<path d="M0 0 C6 0 6 0 8 1 C7.979375 2.0725 7.95875 3.145 7.9375 4.25 C7.9857984 7.14790424 8.13155885 9.28612141 9 12 C5.73045798 11.43628586 4.17424117 10.50037734 2 8 C2 9.32 2 10.64 2 12 C1.34 12 0.68 12 0 12 C0 8.04 0 4.08 0 0 Z M2 2 C2 3.32 2 4.64 2 6 C2.99 5.67 3.98 5.34 5 5 C5 4.01 5 3.02 5 2 C4.01 2 3.02 2 2 2 Z " fill="#1B6E4B" transform="translate(195,76)"/>
<path d="M0 0 C3.63 0 7.26 0 11 0 C10.67 0.66 10.34 1.32 10 2 C9.90427398 3.55888915 9.86925947 5.12176964 9.8671875 6.68359375 C9.86589844 7.61107422 9.86460938 8.53855469 9.86328125 9.49414062 C9.86714844 10.46544922 9.87101562 11.43675781 9.875 12.4375 C9.87113281 13.40494141 9.86726563 14.37238281 9.86328125 15.36914062 C9.86521484 16.76229492 9.86521484 16.76229492 9.8671875 18.18359375 C9.86831543 19.03493896 9.86944336 19.88628418 9.87060547 20.76342773 C9.91236599 23.171942 9.91236599 23.171942 11 26 C7.37 26 3.74 26 0 26 C0.495 24.515 0.495 24.515 1 23 C3.31 23.33 5.62 23.66 8 24 C8 16.74 8 9.48 8 2 C4.0285831 2.62841973 4.0285831 2.62841973 2 5 C1.34 3.35 0.68 1.7 0 0 Z " fill="#11413B" transform="translate(102,41)"/>
<path d="M0 0 C3 1 3 1 3.94921875 2.7421875 C4.31466797 3.79792969 4.31466797 3.79792969 4.6875 4.875 C5.06455078 5.92300781 5.06455078 5.92300781 5.44921875 6.9921875 C6 9 6 9 6 12 C4.39125 11.7215625 4.39125 11.7215625 2.75 11.4375 C-1.07210322 10.76775571 -1.07210322 10.76775571 -5 12 C-3.35 8.04 -1.7 4.08 0 0 Z M1 5 C0.67 5.66 0.34 6.32 0 7 C0.66 7 1.32 7 2 7 C1.67 6.34 1.34 5.68 1 5 Z " fill="#196C49" transform="translate(278,76)"/>
<path d="M0 0 C2.81288705 0.14019692 5.62516885 0.28687955 8.4375 0.4375 C9.23994141 0.47681641 10.04238281 0.51613281 10.86914062 0.55664062 C16.88671875 0.88671875 16.88671875 0.88671875 18 2 C19.66204487 2.20775561 21.33029491 2.36718255 23 2.5 C27.88888889 2.88888889 27.88888889 2.88888889 29 4 C30.51469448 4.23192865 32.03754562 4.41215238 33.5625 4.5625 C34.38878906 4.64628906 35.21507812 4.73007813 36.06640625 4.81640625 C36.70449219 4.87699219 37.34257813 4.93757813 38 5 C38 5.66 38 6.32 38 7 C37.06542969 6.87882812 36.13085938 6.75765625 35.16796875 6.6328125 C33.84117575 6.4633073 32.51435004 6.29405811 31.1875 6.125 C30.48278564 6.03404053 29.77807129 5.94308105 29.05200195 5.84936523 C24.97665505 5.33444895 20.90460161 4.88746704 16.8125 4.52734375 C15.53209839 4.41011963 15.53209839 4.41011963 14.22583008 4.29052734 C12.55475411 4.14040856 10.88266407 4.00112026 9.2097168 3.87353516 C5.01578205 3.48830142 2.76332552 3.20661682 0 0 Z " fill="#D7CD66" transform="translate(20,98)"/>
<path d="M0 0 C0.515625 0.37125 1.03125 0.7425 1.5625 1.125 C-0.0875 1.785 -1.7375 2.445 -3.4375 3.125 C-3.49808594 4.12402344 -3.55867188 5.12304688 -3.62109375 6.15234375 C-3.70488281 7.44269531 -3.78867187 8.73304687 -3.875 10.0625 C-3.95621094 11.35027344 -4.03742187 12.63804688 -4.12109375 13.96484375 C-4.4375 17.125 -4.4375 17.125 -5.4375 18.125 C-7.12358966 18.19705511 -8.81250659 18.20886068 -10.5 18.1875 C-11.41910156 18.17847656 -12.33820312 18.16945313 -13.28515625 18.16015625 C-13.99542969 18.14855469 -14.70570312 18.13695313 -15.4375 18.125 C-15.4375 17.465 -15.4375 16.805 -15.4375 16.125 C-12.4675 16.455 -9.4975 16.785 -6.4375 17.125 C-6.55159682 15.02021396 -6.67915361 12.91615423 -6.8125 10.8125 C-6.88210937 9.64074219 -6.95171875 8.46898438 -7.0234375 7.26171875 C-7.22363747 3.96800113 -7.22363747 3.96800113 -9.4375 1.125 C-3.0375 -1.09038462 -3.0375 -1.09038462 0 0 Z " fill="#F5D568" transform="translate(65.4375,74.875)"/>
<path d="M0 0 C1.08796875 0.0721875 2.1759375 0.144375 3.296875 0.21875 C11.87677003 0.76765194 20.39755502 1.14917535 29 1 C26.6875 3.5 26.6875 3.5 24 6 C23.01 6 22.02 6 21 6 C21 5.01 21 4.02 21 3 C19.87851563 3.10828125 19.87851563 3.10828125 18.734375 3.21875 C17.25710937 3.35796875 17.25710937 3.35796875 15.75 3.5 C14.77546875 3.5928125 13.8009375 3.685625 12.796875 3.78125 C10.53697847 3.95800168 8.26679807 4 6 4 C6 3.34 6 2.68 6 2 C4.35 2 2.7 2 1 2 C0.67 1.34 0.34 0.68 0 0 Z " fill="#155228" transform="translate(54,105)"/>
<path d="M0 0 C1.4540625 0.0309375 1.4540625 0.0309375 2.9375 0.0625 C2.9375 1.0525 2.9375 2.0425 2.9375 3.0625 C1.6175 3.3925 0.2975 3.7225 -1.0625 4.0625 C-0.423125 4.31 0.21625 4.5575 0.875 4.8125 C2.9375 6.0625 2.9375 6.0625 3.875 8 C3.9375 10.0625 3.9375 10.0625 2.8125 11.875 C0.9375 13.0625 0.9375 13.0625 -1.75 12.75 C-2.513125 12.523125 -3.27625 12.29625 -4.0625 12.0625 C-4.0625 11.4025 -4.0625 10.7425 -4.0625 10.0625 C-2.4125 10.0625 -0.7625 10.0625 0.9375 10.0625 C0.9375 9.4025 0.9375 8.7425 0.9375 8.0625 C-1.5375 7.0725 -1.5375 7.0725 -4.0625 6.0625 C-4.105221 4.39638095 -4.10313832 2.72867115 -4.0625 1.0625 C-3.0625 0.0625 -3.0625 0.0625 0 0 Z " fill="#1E6D4F" transform="translate(239.0625,75.9375)"/>
<path d="M0 0 C6.0546875 -0.1953125 6.0546875 -0.1953125 8 0 C8.66 0.66 9.32 1.32 10 2 C9.01 2.33 8.02 2.66 7 3 C7 7.62 7 12.24 7 17 C6.34 16.67 5.68 16.34 5 16 C4.5859375 13.49609375 4.5859375 13.49609375 4.375 10.4375 C4.30023438 9.42558594 4.22546875 8.41367187 4.1484375 7.37109375 C4.09945312 6.58863281 4.05046875 5.80617188 4 5 C3.01 5.33 2.02 5.66 1 6 C0.67 4.02 0.34 2.04 0 0 Z " fill="#F8D75D" transform="translate(202,40)"/>
<path d="M0 0 C-0.33 0.99 -0.66 1.98 -1 3 C-2.98 3.33 -4.96 3.66 -7 4 C-7 4.66 -7 5.32 -7 6 C-9.46692008 7.80695068 -12.03487409 9.41384469 -14.6171875 11.05078125 C-17.25891083 13.21179755 -18.03318484 14.7717264 -19 18 C-20.32 17.67 -21.64 17.34 -23 17 C-17.95129856 10.62040878 -8.9247936 0 0 0 Z " fill="#F7DC77" transform="translate(34,15)"/>
<path d="M0 0 C0.66 0 1.32 0 2 0 C0.66666667 4 -0.66666667 8 -2 12 C-2.08106686 13.55421729 -2.10756898 15.11167027 -2.09765625 16.66796875 C-2.09443359 17.56064453 -2.09121094 18.45332031 -2.08789062 19.37304688 C-2.07951172 20.30181641 -2.07113281 21.23058594 -2.0625 22.1875 C-2.05573242 23.59805664 -2.05573242 23.59805664 -2.04882812 25.03710938 C-2.03704626 27.35813712 -2.02059558 29.67903644 -2 32 C-4.08316208 28.87525688 -4.25530414 28.13587376 -4.265625 24.578125 C-4.26820312 23.71703125 -4.27078125 22.8559375 -4.2734375 21.96875 C-4.26570313 21.0715625 -4.25796875 20.174375 -4.25 19.25 C-4.25773437 18.36828125 -4.26546875 17.4865625 -4.2734375 16.578125 C-4.2578201 11.33067892 -3.70938995 6.96537079 -2 2 C-1.34 2 -0.68 2 0 2 C0 1.34 0 0.68 0 0 Z " fill="#F4D46C" transform="translate(23,32)"/>
<path d="M0 0 C2 2 2 2 3 5 C5.01508358 5.73323796 5.01508358 5.73323796 7 6 C7 7.65 7 9.3 7 11 C6.01 11.33 5.02 11.66 4 12 C4 13.98 4 15.96 4 18 C3.34 18 2.68 18 2 18 C1.66424944 15.56281065 1.33130715 13.12529385 1 10.6875 C0.85691406 9.65206055 0.85691406 9.65206055 0.7109375 8.59570312 C0.31972558 5.70352927 0 2.92235023 0 0 Z " fill="#FBD45F" transform="translate(272,40)"/>
<path d="M0 0 C5.94 0 11.88 0 18 0 C18.33 0.99 18.66 1.98 19 3 C12.73 2.67 6.46 2.34 0 2 C0 1.34 0 0.68 0 0 Z " fill="#034B3E" transform="translate(21,103)"/>
<path d="M0 0 C1.65 0 3.3 0 5 0 C5.33 0.66 5.66 1.32 6 2 C5.67 2.66 5.34 3.32 5 4 C4.92883618 6.37402501 4.91590915 8.75000677 4.9375 11.125 C4.94652344 12.40632813 4.95554687 13.68765625 4.96484375 15.0078125 C4.97644531 15.99523438 4.98804687 16.98265625 5 18 C3.68 17.01 2.36 16.02 1 15 C1.66 15 2.32 15 3 15 C2.67 11.04 2.34 7.08 2 3 C0.68 3.33 -0.64 3.66 -2 4 C-1.34 2.68 -0.68 1.36 0 0 Z " fill="#094036" transform="translate(118,43)"/>
<path d="M0 0 C1.98 0 3.96 0 6 0 C5.67 2.64 5.34 5.28 5 8 C4.01 8.33 3.02 8.66 2 9 C2 8.01 2 7.02 2 6 C1.01 6 0.02 6 -1 6 C-0.67 4.02 -0.34 2.04 0 0 Z " fill="#FADB44" transform="translate(231,40)"/>
<path d="M0 0 C1.98 0.495 1.98 0.495 4 1 C3.34 4.63 2.68 8.26 2 12 C1.01 12 0.02 12 -1 12 C-0.67 8.04 -0.34 4.08 0 0 Z " fill="#287C59" transform="translate(130,76)"/>
<path d="M0 0 C0.99 0.33 1.98 0.66 3 1 C2.67 2.65 2.34 4.3 2 6 C2.99 6 3.98 6 5 6 C4.34 7.32 3.68 8.64 3 10 C1.68 9.34 0.36 8.68 -1 8 C-1.04241723 5.66705225 -1.04092937 3.33297433 -1 1 C-0.67 0.67 -0.34 0.34 0 0 Z " fill="#FCD54D" transform="translate(236,49)"/>
<path d="M0 0 C3.63 0 7.26 0 11 0 C10.34 0.66 9.68 1.32 9 2 C7.35 2 5.7 2 4 2 C3.67 8.93 3.34 15.86 3 23 C2.67 23 2.34 23 2 23 C1.97494385 22.37432129 1.9498877 21.74864258 1.92407227 21.10400391 C1.80824727 18.27745381 1.68546015 15.45124831 1.5625 12.625 C1.52318359 11.64015625 1.48386719 10.6553125 1.44335938 9.640625 C1.40146484 8.69960938 1.35957031 7.75859375 1.31640625 6.7890625 C1.27974854 5.91975098 1.24309082 5.05043945 1.20532227 4.15478516 C1.12598456 1.9516738 1.12598456 1.9516738 0 0 Z " fill="#16423B" transform="translate(159,41)"/>
<path d="M0 0 C0.33 0 0.66 0 1 0 C1.16873478 1.43725871 1.33490737 2.87481838 1.5 4.3125 C1.5928125 5.11300781 1.685625 5.91351563 1.78125 6.73828125 C2.16086425 10.66322144 1.68714296 14.13482088 1 18 C-1 16 -1 16 -1.125 12.375 C-1.08375 11.26125 -1.0425 10.1475 -1 9 C-1.66 9 -2.32 9 -3 9 C-3 8.34 -3 7.68 -3 7 C-2.34 6.67 -1.68 6.34 -1 6 C-0.34227572 2.97065509 -0.34227572 2.97065509 0 0 Z " fill="#F2D36E" transform="translate(82,39)"/>
<path d="M0 0 C0.33 0 0.66 0 1 0 C1.33 3.63 1.66 7.26 2 11 C0.35 11 -1.3 11 -3 11 C-2.53199289 6.94393835 -2.12046792 3.53411321 0 0 Z " fill="#F3D45F" transform="translate(288,56)"/>
<path d="M0 0 C0.33 0 0.66 0 1 0 C1.13277344 0.62648437 1.26554688 1.25296875 1.40234375 1.8984375 C1.57894531 2.71570312 1.75554687 3.53296875 1.9375 4.375 C2.19853516 5.59316406 2.19853516 5.59316406 2.46484375 6.8359375 C2.92330693 9.029463 2.92330693 9.029463 4 11 C2.35 11 0.7 11 -1 11 C-2.1875 8.875 -2.1875 8.875 -3 6 C-1.625 2.6875 -1.625 2.6875 0 0 Z " fill="#FCD54D" transform="translate(253,52)"/>
<path d="M0 0 C0.33 0 0.66 0 1 0 C1.1953125 2.01822917 1.390625 4.03645833 1.5859375 6.0546875 C1.86374749 8.22668245 1.86374749 8.22668245 4 10 C3 11 3 11 0.71484375 11.09765625 C-0.65994141 11.08025391 -0.65994141 11.08025391 -2.0625 11.0625 C-2.98160156 11.05347656 -3.90070313 11.04445313 -4.84765625 11.03515625 C-5.55792969 11.02355469 -6.26820312 11.01195313 -7 11 C-7.33 10.34 -7.66 9.68 -8 9 C-4.71023192 7.90341064 -3.28696233 8.20046862 0 9 C0 6.03 0 3.06 0 0 Z " fill="#093329" transform="translate(96,56)"/>
<path d="M0 0 C3.96 0 7.92 0 12 0 C11.34 1.65 10.68 3.3 10 5 C9.34 4.01 8.68 3.02 8 2 C7.01 2 6.02 2 5 2 C4.67 5.63 4.34 9.26 4 13 C3.67 13 3.34 13 3 13 C3 9.37 3 5.74 3 2 C2.01 1.67 1.02 1.34 0 1 C0 0.67 0 0.34 0 0 Z " fill="#163E37" transform="translate(138,41)"/>
<path d="M0 0 C0.33 0 0.66 0 1 0 C1.38133299 1.9914056 1.71325582 3.99279077 2 6 C1.67 6.33 1.34 6.66 1 7 C0.76712992 8.68183948 0.58735834 10.3712416 0.4375 12.0625 C0.31181641 13.44115234 0.31181641 13.44115234 0.18359375 14.84765625 C0.12300781 15.55792969 0.06242187 16.26820312 0 17 C-1.32 17 -2.64 17 -4 17 C-4 16.34 -4 15.68 -4 15 C-3.34 15 -2.68 15 -2 15 C-2.04125 13.824375 -2.0825 12.64875 -2.125 11.4375 C-2.13983635 7.27590326 -1.31170778 3.93512333 0 0 Z " fill="#F3D572" transform="translate(83,17)"/>
<path d="M0 0 C0.66 1.32 1.32 2.64 2 4 C2.66 4 3.32 4 4 4 C4 4.99 4 5.98 4 7 C4.99 7.33 5.98 7.66 7 8 C6.401875 8.268125 5.80375 8.53625 5.1875 8.8125 C2.67189278 10.04401889 2.67189278 10.04401889 0 13 C0 8.71 0 4.42 0 0 Z " fill="#F8D765" transform="translate(38,68)"/>
<path d="M0 0 C0.33 0 0.66 0 1 0 C1 5.28 1 10.56 1 16 C2.65 16 4.3 16 6 16 C6 16.66 6 17.32 6 18 C3.69 18 1.38 18 -1 18 C-1 14.42356421 -0.74637226 10.87823909 -0.5 7.3125 C-0.45230469 6.61060547 -0.40460938 5.90871094 -0.35546875 5.18554688 C-0.23787848 3.45696984 -0.11905865 1.72847652 0 0 Z " fill="#ECCF74" transform="translate(273,49)"/>
<path d="M0 0 C0.99 0 1.98 0 3 0 C3.33 1.98 3.66 3.96 4 6 C2.35 6.33 0.7 6.66 -1 7 C-1.33 5.35 -1.66 3.7 -2 2 C-1.34 2 -0.68 2 0 2 C0 1.34 0 0.68 0 0 Z " fill="#FDD848" transform="translate(74,34)"/>
<path d="M0 0 C0.33 0.66 0.66 1.32 1 2 C3.31 2 5.62 2 8 2 C8 2.99 8 3.98 8 5 C4.7 5 1.4 5 -2 5 C-2 4.01 -2 3.02 -2 2 C-1.34 2 -0.68 2 0 2 C0 1.34 0 0.68 0 0 Z " fill="#EFCF66" transform="translate(181,62)"/>
<path d="M0 0 C1.32 0 2.64 0 4 0 C5.60725635 3.21451269 5.05748185 6.43612536 5 10 C4.01 10.495 4.01 10.495 3 11 C2.34 9.35 1.68 7.7 1 6 C1.66 6 2.32 6 3 6 C3 4.68 3 3.36 3 2 C1.68 1.67 0.36 1.34 -1 1 C-0.67 0.67 -0.34 0.34 0 0 Z " fill="#FCEC7C" transform="translate(282,49)"/>
<path d="M0 0 C-0.804375 0.28875 -1.60875 0.5775 -2.4375 0.875 C-5.1326468 1.73262568 -5.1326468 1.73262568 -6 4 C-7.98 4 -9.96 4 -12 4 C-11.67 2.68 -11.34 1.36 -11 0 C-3.375 -1.125 -3.375 -1.125 0 0 Z " fill="#10513E" transform="translate(54,105)"/>
<path d="M0 0 C0.66 0 1.32 0 2 0 C2 3.96 2 7.92 2 12 C1.01 11.67 0.02 11.34 -1 11 C-1.02688151 9.35425434 -1.04634123 7.70838587 -1.0625 6.0625 C-1.07410156 5.14597656 -1.08570313 4.22945313 -1.09765625 3.28515625 C-1 1 -1 1 0 0 Z " fill="#236F4F" transform="translate(261,76)"/>
<path d="M0 0 C0.66 0 1.32 0 2 0 C2.33 3.63 2.66 7.26 3 11 C0.03 10.505 0.03 10.505 -3 10 C-2.34 8.68 -1.68 7.36 -1 6 C-0.34 6 0.32 6 1 6 C0.67 4.02 0.34 2.04 0 0 Z " fill="#FCD555" transform="translate(185,54)"/>
<path d="M0 0 C0.66 0.33 1.32 0.66 2 1 C1.67 1.66 1.34 2.32 1 3 C1.99 3 2.98 3 4 3 C4 3.66 4 4.32 4 5 C3.34 5 2.68 5 2 5 C2.33 7.64 2.66 10.28 3 13 C2.01 12.67 1.02 12.34 0 12 C0.33 9.69 0.66 7.38 1 5 C0.34 5 -0.32 5 -1 5 C-0.67 3.35 -0.34 1.7 0 0 Z " fill="#F2DD85" transform="translate(53,29)"/>
<path d="M0 0 C0.99 0 1.98 0 3 0 C3 0.66 3 1.32 3 2 C3.99 2.33 4.98 2.66 6 3 C5.01 3.66 4.02 4.32 3 5 C1.79549696 7.55183404 1.79549696 7.55183404 1 10 C0.67 10 0.34 10 0 10 C0 6.7 0 3.4 0 0 Z " fill="#FDD549" transform="translate(71,24)"/>
<path d="M0 0 C0.66 0.33 1.32 0.66 2 1 C-1.33333333 4.33333333 -4.66666667 7.66666667 -8 11 C-7.75 8.625 -7.75 8.625 -7 6 C-4.9375 4.6875 -4.9375 4.6875 -3 4 C-3 3.01 -3 2.02 -3 1 C-2.01 0.67 -1.02 0.34 0 0 Z " fill="#F3D56D" transform="translate(33,21)"/>
<path d="M0 0 C0.66 0 1.32 0 2 0 C2.33 1.65 2.66 3.3 3 5 C2.34 5 1.68 5 1 5 C0.67 6.32 0.34 7.64 0 9 C-0.66 9 -1.32 9 -2 9 C-2.66 6.36 -3.32 3.72 -4 1 C-3.34 1 -2.68 1 -2 1 C-2 1.99 -2 2.98 -2 4 C-1.34 3.34 -0.68 2.68 0 2 C0 1.34 0 0.68 0 0 Z " fill="#FBD064" transform="translate(235,45)"/>
<path d="M0 0 C1.98 0 3.96 0 6 0 C5.67 0.66 5.34 1.32 5 2 C4.01 2.33 3.02 2.66 2 3 C2 5.97 2 8.94 2 12 C1.34 12 0.68 12 0 12 C0 8.04 0 4.08 0 0 Z " fill="#2E6E52" transform="translate(195,76)"/>
<path d="M0 0 C0.99 0.33 1.98 0.66 3 1 C3.125 3.375 3.125 3.375 3 6 C2.34 6.66 1.68 7.32 1 8 C0.01 7.67 -0.98 7.34 -2 7 C-1.67 6.34 -1.34 5.68 -1 5 C-0.64386903 3.33805547 -0.30791692 1.671549 0 0 Z " fill="#FBD54E" transform="translate(195,43)"/>
<path d="M0 0 C2.97 0 5.94 0 9 0 C9.33 0.99 9.66 1.98 10 3 C6.37 3 2.74 3 -1 3 C-0.67 2.01 -0.34 1.02 0 0 Z " fill="#07281E" transform="translate(103,64)"/>
<path d="M0 0 C0.66 0 1.32 0 2 0 C2.33 2.31 2.66 4.62 3 7 C0.36 7.33 -2.28 7.66 -5 8 C-4.67 7.01 -4.34 6.02 -4 5 C-4 5.66 -4 6.32 -4 7 C-2.02 6.67 -0.04 6.34 2 6 C2 5.34 2 4.68 2 4 C1.34 4 0.68 4 0 4 C0 2.68 0 1.36 0 0 Z M-2 4 C0 5 0 5 0 5 Z " fill="#F6D56F" transform="translate(267,43)"/>
<path d="M0 0 C0.95465783 2.16967689 1.14401212 3.56328793 0.3984375 5.82421875 C-0.35870385 7.5684743 -1.17609198 9.28627131 -2 11 C-2.12375 10.360625 -2.2475 9.72125 -2.375 9.0625 C-2.58125 8.381875 -2.7875 7.70125 -3 7 C-3.66 6.67 -4.32 6.34 -5 6 C-3.35 4.02 -1.7 2.04 0 0 Z " fill="#E9D274" transform="translate(98,72)"/>
<path d="M0 0 C0.33 0 0.66 0 1 0 C1.33 2.97 1.66 5.94 2 9 C3.65 9.33 5.3 9.66 7 10 C6.67 10.66 6.34 11.32 6 12 C4.02 12 2.04 12 0 12 C0 8.04 0 4.08 0 0 Z " fill="#F4D671" transform="translate(279,55)"/>
<path d="M0 0 C0.33 0.66 0.66 1.32 1 2 C-2.153368 2.70074844 -4.72724974 3 -8 3 C-8.33 2.34 -8.66 1.68 -9 1 C-9.66 0.67 -10.32 0.34 -11 0 C-6.88825414 -1.37058195 -4.26339405 -0.75640862 0 0 Z " fill="#F7DD87" transform="translate(266,41)"/>
<path d="M0 0 C2.97 0 5.94 0 9 0 C6.6875 2.5 6.6875 2.5 4 5 C3.01 5 2.02 5 1 5 C0.67 3.35 0.34 1.7 0 0 Z " fill="#155643" transform="translate(74,106)"/>
<path d="M0 0 C1.98 0 3.96 0 6 0 C6 0.99 6 1.98 6 3 C4.68 3 3.36 3 2 3 C1.67 3.66 1.34 4.32 1 5 C0.34 5 -0.32 5 -1 5 C-0.67 3.35 -0.34 1.7 0 0 Z " fill="#2F7050" transform="translate(236,76)"/>
<path d="M0 0 C0.66 0 1.32 0 2 0 C2 3.3 2 6.6 2 10 C1.01 9.01 0.02 8.02 -1 7 C-0.6875 3.3125 -0.6875 3.3125 0 0 Z " fill="#F7D672" transform="translate(216,54)"/>
<path d="M0 0 C1.98 0.495 1.98 0.495 4 1 C3.67 2.98 3.34 4.96 3 7 C2.67 6.34 2.34 5.68 2 5 C1.01 4.67 0.02 4.34 -1 4 C-0.67 2.68 -0.34 1.36 0 0 Z " fill="#FCD859" transform="translate(263,55)"/>
<path d="M0 0 C0.33 0.99 0.66 1.98 1 3 C1.66 3 2.32 3 3 3 C3 2.34 3 1.68 3 1 C3.66 1 4.32 1 5 1 C5.33 1.99 5.66 2.98 6 4 C1.375 6.125 1.375 6.125 -2 5 C-1.34 3.35 -0.68 1.7 0 0 Z " fill="#1B6445" transform="translate(215,82)"/>
<path d="M0 0 C0 2.64 0 5.28 0 8 C-0.66 8 -1.32 8 -2 8 C-2.66 6.02 -3.32 4.04 -4 2 C-1 0 -1 0 0 0 Z " fill="#166D4A" transform="translate(142,80)"/>
<path d="M0 0 C0.99 0.33 1.98 0.66 3 1 C3.33 2.98 3.66 4.96 4 7 C3.01 7 2.02 7 1 7 C1.33 6.01 1.66 5.02 2 4 C1.01 4 0.02 4 -1 4 C-0.67 2.68 -0.34 1.36 0 0 Z " fill="#267052" transform="translate(157,76)"/>
<path d="M0 0 C0.33 0.66 0.66 1.32 1 2 C1.99 2.33 2.98 2.66 4 3 C1.33333333 4.33333333 -1.33333333 5.66666667 -4 7 C-3.43628586 3.73045798 -2.50037734 2.17424117 0 0 Z " fill="#EFD36D" transform="translate(191,50)"/>
<path d="M0 0 C1.32 0 2.64 0 4 0 C4.33 1.32 4.66 2.64 5 4 C3.68 4.33 2.36 4.66 1 5 C0.34 4.01 -0.32 3.02 -1 2 C-0.67 1.34 -0.34 0.68 0 0 Z " fill="#F2D368" transform="translate(26,52)"/>
<path d="M0 0 C1.32 0 2.64 0 4 0 C3.67 1.65 3.34 3.3 3 5 C2.01 5 1.02 5 0 5 C-0.33 4.01 -0.66 3.02 -1 2 C-0.67 1.34 -0.34 0.68 0 0 Z " fill="#F7D962" transform="translate(54,20)"/>
<path d="M0 0 C1.32 0 2.64 0 4 0 C3.67 0.99 3.34 1.98 3 3 C2.01 3 1.02 3 0 3 C0 3.66 0 4.32 0 5 C-0.66 5 -1.32 5 -2 5 C-2.33 5.66 -2.66 6.32 -3 7 C-2.38722388 4.03824877 -1.74627478 2.61941217 0 0 Z " fill="#03493C" transform="translate(14,113)"/>
<path d="M0 0 C1.99097846 2.98646769 2.94124926 5.59687262 4 9 C-0.875 7.25 -0.875 7.25 -2 5 C-1.34 5 -0.68 5 0 5 C0 3.35 0 1.7 0 0 Z " fill="#F7D45D" transform="translate(21,64)"/>
<path d="M0 0 C0.66 0 1.32 0 2 0 C1.34 2.97 0.68 5.94 0 9 C-0.66 9 -1.32 9 -2 9 C-1.34 6.03 -0.68 3.06 0 0 Z " fill="#F7D47C" transform="translate(229,41)"/>
</svg>
